HIERARCHY
ROOT Hip
{
    OFFSET 0.0 0.0 0.0
    CHANNELS 6 Xposition Yposition Zposition Zrotation Xrotation Yrotation
    JOINT RightHip
    {
        OFFSET -13.93172550201416 0.0 0.0
        CHANNELS 3 Zrotation Xrotation Yrotation
        JOINT RightKnee
        {
            OFFSET 0.0 0.0 -43.03237533569336
            CHANNELS 3 Zrotation Xrotation Yrotation
            JOINT RightAnkle
            {
                OFFSET 0.0 0.0 -43.61851501464844
                CHANNELS 3 Zrotation Xrotation Yrotation
                End Site
                {
                    OFFSET 0.0 -17.447406768798828 0.0
                }
            }
        }
    }
    JOINT LeftHip
    {
        OFFSET 13.93172550201416 0.0 0.0
        CHANNELS 3 Zrotation Xrotation Yrotation
        JOINT LeftKnee
        {
            OFFSET 0.0 0.0 -43.03237533569336
            CHANNELS 3 Zrotation Xrotation Yrotation
            JOINT LeftAnkle
            {
                OFFSET 0.0 0.0 -43.61851501464844
                CHANNELS 3 Zrotation Xrotation Yrotation
                End Site
                {
                    OFFSET 0.0 -17.447406768798828 0.0
                }
            }
        }
    }
    JOINT Spine
    {
        OFFSET 0.0 0.0 25.557682037353516
        CHANNELS 3 Zrotation Xrotation Yrotation
        JOINT Thorax
        {
            OFFSET 0.0 0.0 25.316410064697266
            CHANNELS 3 Zrotation Xrotation Yrotation
            JOINT Neck
            {
                OFFSET 0.0 0.0 11.616474151611328
                CHANNELS 3 Zrotation Xrotation Yrotation
                End Site
                {
                    OFFSET 0.0 0.0 4.646589279174805
                }
            }
            JOINT LeftShoulder
            {
                OFFSET 15.678119659423828 0.0 0.0
                CHANNELS 3 Zrotation Xrotation Yrotation
                JOINT LeftElbow
                {
                    OFFSET 25.878799438476562 0.0 0.0
                    CHANNELS 3 Zrotation Xrotation Yrotation
                    JOINT LeftWrist
                    {
                        OFFSET 19.23625946044922 0.0 0.0
                        CHANNELS 3 Zrotation Xrotation Yrotation
                        End Site
                        {
                            OFFSET 7.6945037841796875 0.0 0.0
                        }
                    }
                }
            }
            JOINT RightShoulder
            {
                OFFSET -15.678119659423828 0.0 0.0
                CHANNELS 3 Zrotation Xrotation Yrotation
                JOINT RightElbow
                {
                    OFFSET -25.878799438476562 0.0 0.0
                    CHANNELS 3 Zrotation Xrotation Yrotation
                    JOINT RightWrist
                    {
                        OFFSET -19.23625946044922 0.0 0.0
                        CHANNELS 3 Zrotation Xrotation Yrotation
                        End Site
                        {
                            OFFSET -7.6945037841796875 0.0 0.0
                        }
                    }
                }
            }
        }
    }
}
MOTION
Frames: 5
Frame Time: 0.03333333333333333
0.00021921659936197102 -0.0036008190363645554 -0.00011813014862127602 90.57967431296855 -59.42933575406445 -99.19513481286856 1.5250584161193492 -25.425348668700543 13.494042419793692 5.543681691397996 28.85437746067575 -6.684676035251741 -1.5902773407317584e-15 0.0 0.0 0.8463876944479228 -14.65598968367209 6.949576032672058 1.445668708115384 21.797168115533296 0.23155544559954203 0.0 0.0 -3.1805546814635168e-15 -0.8867016172833508 15.388394121826126 1.8148939202708794 -1.0210267922201648 2.9226797405032426e-07 -1.3057151378118492e-07 4.941536412067359 16.706808763497413 -15.827472868142266 54.122807224362134 -29.702373786664747 55.67470536426965 -135.3641537783779 -3.19605943611492e-06 -8.477584709229373e-07 -4.770832022195275e-15 -4.965644585306429e-32 1.1927080055488188e-15 -70.90643443217888 -35.79176763613262 -56.92052126425711 128.93715735133867 2.0770135417338283e-06 -2.110771215216414e-06 1.3914926731402888e-15 -6.3611093629270335e-15 3.1805546814635168e-15
0.00021287560230121017 -0.0036144526675343513 -0.00011717494635377079 90.38030693119758 -59.62851544153675 -99.34223481250294 1.5012344101089357 -24.868135070496255 13.194778220249777 5.265958453557757 28.415589770933607 -6.382910505978324 -3.180554681463516e-15 0.0 0.0 0.8492801903477212 -14.570068739181847 6.875820331065932 1.4014523396729193 21.76446507337956 0.20517402705890156 -1.5902773407317584e-15 -6.3611093629270335e-15 -8.827812596100317e-32 -0.8843268597383319 15.210046503790567 1.8913357482602644 -1.052590668215882 5.862503823910674e-07 1.1878882560198158e-06 4.96270947078396 16.50734963144303 -15.878615894079516 54.35890619117474 -29.315496870611323 55.44482572137377 -135.2079992943317 3.3166662440270634e-06 1.936449654536657e-06 -2.782985346280577e-15 1.9310840053969444e-32 -7.951386703658792e-16 -70.73807465167805 -35.44109067712832 -56.38492216189831 129.18647914805928 1.4374839381509535e-06 4.4106499815922116e-07 -2.3854160110976376e-15 0.0 0.0
0.00020930929167661816 -0.003604804165661335 -0.00014866098354104906 89.69756310986006 -59.89109417935409 -99.81431445248857 1.4045072664172487 -23.50240217775739 12.26926926680668 4.561989228463236 27.328751539779784 -5.211344002520693 1.5902773407317584e-15 6.3611093629270335e-15 -8.827812596100317e-32 0.8116971638258185 -13.988380734787086 6.625579267077602 1.2927107192325555 21.52752094073358 0.03776630661068907 -4.770832022195275e-15 6.3611093629270335e-15 2.648343778830095e-31 -0.8609851396442073 14.866040119114 1.9679244060460792 -1.2104505393261082 3.2855071966357965e-06 3.495145661388993e-06 5.2495511276769555 16.908143953913722 -16.083900367852895 54.22945589561849 -29.101378540131478 55.245610648294665 -134.51287680956733 -2.573089523859642e-06 3.968895615901069e-06 -7.951386703658792e-15 -6.3611093629270335e-15 -7.951386703658796e-16 -70.73723032194788 -35.1178692493743 -56.4123651977306 129.7678211426833 5.6841622576389825e-06 3.332457961621871e-06 6.1623246953355635e-15 0.0 0.0
0.0001921467628562823 -0.003617011709138751 -0.00017994675727095455 88.68000640646851 -60.21358678639927 -100.62345484456023 1.2230418336389879 -21.235280818330676 11.05837208752161 3.597954870004358 24.945188246031044 -3.474829169628614 0.0 0.0 0.0 0.7253572923468637 -12.86298299601355 6.351749565880542 1.178979041583585 20.808478520907716 -0.0799912011421731 -1.5902773407317584e-15 6.3611093629270335e-15 8.827812596100317e-32 -0.8269182802896899 14.658029925723325 2.130766739739985 -1.332867942914357 7.164003998581187e-07 -1.2084731258019547e-06 5.584032103587793 17.03852411484029 -16.180836538425318 54.2693011735098 -29.11215745581341 55.197922148166484 -133.39769186622078 -2.247230001100217e-06 -3.667503896712379e-07 7.951386703658792e-16 -5.9635400277440935e-15 -3.9756933518293955e-16 -71.67742483751518 -35.08595094629723 -56.74774712115307 129.8685660607357 3.957712552515574e-06 2.046984987375776e-06 6.7586786981099735e-15 0.0 0.0
0.00015952718968037516 -0.0036293575540184975 -0.00017367223335895687 87.26923138757364 -60.44379538650045 -101.72152678374421 1.0844021630986123 -18.67962913495449 9.72582378497971 2.58502665167956 22.089100367089795 -1.5533258658930928 -1.5902773407317584e-15 0.0 0.0 0.6540440944041608 -11.418658338446606 6.121261756426604 1.0330763401603966 20.074614831214447 -0.2510976088667513 -1.5902773407317584e-15 6.3611093629270335e-15 3.1805546814635168e-15 -0.8218311734544561 14.308386427382388 2.1631744677196996 -1.3730691636319556 -3.3677053648535495e-06 1.0670709154798054e-06 6.086767884380893 17.0423430431439 -16.352927238734548 53.68014494125773 -28.985126399046163 54.47363241411714 -132.09348139515018 -9.294602055518678e-07 -3.660387105441247e-06 -2.782985346280577e-15 1.351758803777861e-31 -5.565970692561154e-15 -72.36127536362689 -34.53160795366695 -56.6776714880945 130.279524197452 -3.2688759225845606e-06 -2.101337449549808e-06 7.951386703658792e-16 6.3611093629270335e-15 -4.4139062980501586e-32
